<svg id="Layer_1" data-name="Layer 1" xmlns="http://www.w3.org/2000/svg" viewBox="0 0 697.89 241.56"><defs><style>.cls-1{fill:#333335;}</style></defs><path class="cls-1" d="M749.38,92.82V294.38H91.49V92.82H749.38m20-20H71.49V314.38H769.38V72.82Z" transform="translate(-71.49 -72.82)"/><path class="cls-1" d="M682.41,187.64h-23.6a1.81,1.81,0,0,0-1.8,1.8v11.62a1.8,1.8,0,0,0,1.8,1.8h9.71l0,6.34A19.82,19.82,0,0,1,651.74,214c-10.39-1.57-18.23-9.71-18.23-20.43a20.61,20.61,0,0,1,16.92-20.26,18.46,18.46,0,0,1,3.75-.41,18.84,18.84,0,0,1,5.45.83,20.35,20.35,0,0,1,6.9,3.41c.23.16.81.6.85.64.88.7,1.3,1.5,3-.17l7.46-7.31.42-.42a1.82,1.82,0,0,0,0-2.57A36.89,36.89,0,0,0,657.88,157a38.7,38.7,0,0,0-5-.32,38.07,38.07,0,0,0-32.66,18.19,37,37,0,0,0-2.83,31.27,37.75,37.75,0,0,0,35.33,24.31c14.12,0,24.08-5.16,30.75-13.86a2.81,2.81,0,0,0,.32-.89V189.07A1.43,1.43,0,0,0,682.41,187.64Z" transform="translate(-71.49 -72.82)"/><path class="cls-1" d="M311.64,157.88H297.17A2.16,2.16,0,0,0,295,160v25.57H265.29V160a2.16,2.16,0,0,0-2.16-2.16H248.66A2.16,2.16,0,0,0,246.5,160v67.89a2.16,2.16,0,0,0,2.16,2.16h14.47a2.16,2.16,0,0,0,2.16-2.16V202.55H295v25.38a2.16,2.16,0,0,0,2.16,2.16h14.47a2.16,2.16,0,0,0,2.16-2.16V160A2.16,2.16,0,0,0,311.64,157.88Z" transform="translate(-71.49 -72.82)"/><path class="cls-1" d="M221.74,157.82H157.22a1.43,1.43,0,0,0-1.44,1.44V174a1.43,1.43,0,0,0,1.44,1.44h22.66v53.23a1.45,1.45,0,0,0,1.44,1.44h16.51a1.45,1.45,0,0,0,1.44-1.44V175.42h22.47a1.44,1.44,0,0,0,1.44-1.44V159.26A1.44,1.44,0,0,0,221.74,157.82Z" transform="translate(-71.49 -72.82)"/><path class="cls-1" d="M690.55,164.46a.61.61,0,0,1-.24.06A.61.61,0,0,0,690.55,164.46Z" transform="translate(-71.49 -72.82)"/><path class="cls-1" d="M691,165.4a1.5,1.5,0,0,0,.91-1.42,1.55,1.55,0,0,0-1.58-1.59h-2a.25.25,0,0,0-.24.25v4.19a.24.24,0,0,0,.24.24H689a.24.24,0,0,0,.24-.24v-1.37h.67l.7,1.43a.28.28,0,0,0,.23.18h.69a.23.23,0,0,0,.22-.34Zm-.14-1.41a.51.51,0,0,1-.29.47.61.61,0,0,1-.24.06h-1.15v-1.19h1.15a.54.54,0,0,1,.53.57Z" transform="translate(-71.49 -72.82)"/><path class="cls-1" d="M689.8,159.48a5.26,5.26,0,1,0,5.27,5.27A5.27,5.27,0,0,0,689.8,159.48Zm0,9.38a4.12,4.12,0,1,1,4.12-4.11A4.11,4.11,0,0,1,689.8,168.86Z" transform="translate(-71.49 -72.82)"/><path class="cls-1" d="M393.73,172.69V159.62a1.81,1.81,0,0,0-1.8-1.8h-52a1.81,1.81,0,0,0-1.8,1.8v68.95a1.52,1.52,0,0,0,1.51,1.52l52.57-.05a1.52,1.52,0,0,0,1.52-1.52V215.17a1.81,1.81,0,0,0-1.8-1.8H359.31a1.81,1.81,0,0,1-1.8-1.8V202h23.16a1.81,1.81,0,0,0,1.8-1.8V188a1.8,1.8,0,0,0-1.8-1.8H357.51v-9.88a1.8,1.8,0,0,1,1.8-1.8h32.62A1.81,1.81,0,0,0,393.73,172.69Z" transform="translate(-71.49 -72.82)"/><path class="cls-1" d="M597.19,172.69V159.62a1.81,1.81,0,0,0-1.8-1.8h-52a1.8,1.8,0,0,0-1.8,1.8v68.95c0,.84.68,1.52,2.51,1.52l52.57-.05c-.16,0,.52-.68.52-1.52V215.17a1.81,1.81,0,0,0-1.8-1.8H562.77a1.81,1.81,0,0,1-1.8-1.8v-9.64h23.16a1.81,1.81,0,0,0,1.8-1.8V187.89a1.8,1.8,0,0,0-1.8-1.8H561v-9.8a1.8,1.8,0,0,1,1.8-1.8h32.62A1.81,1.81,0,0,0,597.19,172.69Z" transform="translate(-71.49 -72.82)"/><path class="cls-1" d="M521.54,230.09a1.45,1.45,0,0,0,1.07-2.42l-5-5.43h0l-24.23-27.48a1.3,1.3,0,0,1-.06-1.64l24.07-31.19,1.36-1.69a1.44,1.44,0,0,0-1.12-2.34H500a1.44,1.44,0,0,0-1.13.56l-22.33,28.64a.28.28,0,0,1-.51-.18V159.68a1.81,1.81,0,0,0-1.8-1.8H459a1.81,1.81,0,0,0-1.8,1.8v68.61a1.81,1.81,0,0,0,1.8,1.8h15.2a1.81,1.81,0,0,0,1.8-1.8V199.7l25.3,29.59a2.29,2.29,0,0,0,1.73.8h18.51Z" transform="translate(-71.49 -72.82)"/></svg>