<?xml version="1.0" encoding="UTF-8"?>
<svg width="140px" height="41px" viewBox="0 0 140 41" version="1.1" xmlns="http://www.w3.org/2000/svg" xmlns:xlink="http://www.w3.org/1999/xlink">
    <title>nephew logo</title>
    <defs>
        <polygon id="path-1" points="0.014815534 0.310718447 20.4561748 0.310718447 20.4561748 31.9417476 0.014815534 31.9417476"></polygon>
        <polygon id="path-3" points="0.0126407767 0.385339806 20.0244854 0.385339806 20.0244854 31.7575049 0.0126407767 31.7575049"></polygon>
        <polygon id="path-5" points="0.434543689 0.569718447 31.2104854 0.569718447 31.2104854 24.2820485 0.434543689 24.2820485"></polygon>
    </defs>
    <g id="Home" stroke="none" stroke-width="1" fill="none" fill-rule="evenodd">
        <g id="Desktop-HD" transform="translate(-27.000000, -23.000000)">
            <g id="header" transform="translate(27.000000, 21.000000)">
                <g id="nephew-logo" transform="translate(0.000000, 2.000000)">
                    <path d="M28.9220971,17.7211456 C28.9220971,17.0191068 29.0512233,16.402699 29.3087961,15.8698835 C29.524233,15.3411456 29.9000583,14.8993981 30.4383107,14.5466796 C30.9765631,14.196 31.6398641,14.0206602 32.4295728,14.0206602 C33.2172427,14.0206602 33.8819029,14.196 34.4201553,14.5466796 C34.9584078,14.8993981 35.3423883,15.3411456 35.5707379,15.8698835 C35.8296699,16.402699 35.9574369,17.0191068 35.9574369,17.7211456 L28.9220971,17.7211456 Z M38.1845243,9.56920388 C36.5718058,8.57765049 34.6525825,8.08085437 32.4295728,8.08085437 C29.2734563,8.08085437 26.7153981,9.1498835 24.7581165,11.2879417 C22.7994757,13.426 21.8215146,16.3945437 21.8215146,20.1969709 C21.8215146,28.2727961 25.579767,32.3110485 33.0969515,32.3110485 C35.2336505,32.3110485 36.9761748,32.0120194 38.3245243,31.4139612 C39.6728738,30.8165825 41.000835,29.863767 42.3063689,28.5534757 L37.9813204,24.2644466 C37.2928738,24.9454175 36.6071456,25.4401748 35.9261748,25.7527961 C35.2438447,26.0647379 34.3012233,26.2210485 33.0969515,26.2210485 C31.8199612,26.2210485 30.8046214,25.8669709 30.0522913,25.1581359 C29.2986019,24.4486214 28.9220971,23.5834757 28.9220971,22.5633786 L43.1015146,22.5633786 L43.1015146,19.3297864 C43.1015146,17.2039612 42.6849126,15.2928932 41.8544272,13.5986214 C41.0219029,11.9029903 39.7992816,10.5593981 38.1845243,9.56920388 L38.1845243,9.56920388 Z" id="Fill-1" fill="#FEFEFE"></path>
                    <g id="Group-5" transform="translate(44.854369, 7.770136)">
                        <mask id="mask-2" fill="white">
                            <use xlink:href="#path-1"></use>
                        </mask>
                        <g id="Clip-4"></g>
                        <path d="M13.0225825,15.5129515 C12.8859806,16.3244078 12.6066602,16.9442136 12.1825825,17.3744078 C11.7605437,17.8059612 11.110835,18.0193592 10.2361748,18.0193592 C9.36083495,18.0193592 8.71112621,17.8059612 8.28908738,17.3744078 C7.86500971,16.9442136 7.58568932,16.3244078 7.44908738,15.5129515 C7.31384466,14.7028544 7.24520388,13.6739223 7.24520388,12.4261553 C7.24520388,10.4743107 7.43549515,9.05460194 7.81471845,8.16499029 C8.19530097,7.27605825 9.00267961,6.83159223 10.2361748,6.83159223 C11.110835,6.83159223 11.7605437,7.0456699 12.1825825,7.47654369 C12.6066602,7.90673786 12.8859806,8.52790291 13.0225825,9.33867961 C13.1578252,10.1487767 13.226466,11.1777087 13.226466,12.4261553 C13.226466,13.6739223 13.1578252,14.7028544 13.0225825,15.5129515 M18.2617087,2.46372816 C16.7991845,1.02906796 14.8765631,0.310718447 12.4952039,0.310718447 C10.3156893,0.310718447 8.49229126,1.04198058 7.02976699,2.50654369 L7.02976699,0.569650485 L0.014815534,0.569650485 L0.014815534,31.9418835 L7.24520388,31.9418835 L7.24520388,22.5605243 C8.55073786,23.8803301 10.3156893,24.5409126 12.5380194,24.5409126 C14.8901553,24.5409126 16.7991845,23.8225631 18.2617087,22.3879029 C19.2090874,21.4425631 19.8112233,20.2546019 20.0701553,18.8267379 C20.3277282,17.3995534 20.4561748,15.6318835 20.4561748,13.5237282 L20.4561748,12.4261553 L20.4561748,11.3279029 C20.4561748,9.21906796 20.3277282,7.45139806 20.0701553,6.02421359 C19.8112233,4.59702913 19.2090874,3.40906796 18.2617087,2.46372816" id="Fill-3" fill="#FEFEFE" mask="url(#mask-2)"></path>
                    </g>
                    <g id="Group-8" transform="translate(67.281553, 0.294408)">
                        <mask id="mask-4" fill="white">
                            <use xlink:href="#path-3"></use>
                        </mask>
                        <g id="Clip-7"></g>
                        <path d="M16.6243883,8.89536893 C15.4914757,8.15663107 14.1003107,7.78624272 12.449534,7.78624272 C11.5171068,7.78624272 10.5955534,7.97381553 9.6855534,8.34692233 C8.77419417,8.72002913 7.95933981,9.26439806 7.24302913,9.98274757 L7.24302913,0.385271845 L0.0126407767,0.385271845 L0.0126407767,31.7575049 L7.24302913,31.7575049 L7.24302913,17.3837184 C7.24302913,16.2786699 7.54001942,15.491 8.13671845,15.0166311 C8.73137864,14.5436214 9.35866019,14.3071165 10.0185631,14.3071165 C10.678466,14.3071165 11.3064272,14.5361456 11.9010874,14.9955631 C12.4971068,15.4549806 12.7947767,16.2508058 12.7947767,17.3837184 L12.7947767,31.7575049 L20.0244854,31.7575049 L20.0244854,16.3724563 C20.0244854,14.7651748 19.7404078,13.3019709 19.1742913,11.9835243 C18.6074951,10.6637184 17.757301,9.6341068 16.6243883,8.89536893" id="Fill-6" fill="#FEFEFE" mask="url(#mask-4)"></path>
                    </g>
                    <path d="M95.957767,17.7211456 C95.957767,17.0191068 96.0868932,16.402699 96.344466,15.8698835 C96.5599029,15.3411456 96.9357282,14.8993981 97.4739806,14.5466796 C98.012233,14.196 98.675534,14.0206602 99.4652427,14.0206602 C100.252913,14.0206602 100.917573,14.196 101.455825,14.5466796 C101.994078,14.8993981 102.377379,15.3411456 102.606408,15.8698835 C102.86534,16.402699 102.993107,17.0191068 102.993107,17.7211456 L95.957767,17.7211456 Z M105.220194,9.56920388 C103.607476,8.57765049 101.688252,8.08085437 99.4652427,8.08085437 C96.3091262,8.08085437 93.751068,9.1498835 91.7937864,11.2879417 C89.8351456,13.426 88.8571845,16.3945437 88.8571845,20.1969709 C88.8571845,28.2727961 92.6154369,32.3110485 100.132621,32.3110485 C102.26932,32.3110485 104.011845,32.0120194 105.360194,31.4139612 C106.708544,30.8165825 108.036505,29.863767 109.341359,28.5534757 L105.01699,24.2644466 C104.328544,24.9454175 103.642816,25.4401748 102.961845,25.7527961 C102.279515,26.0647379 101.336893,26.2210485 100.132621,26.2210485 C98.8556311,26.2210485 97.8402913,25.8669709 97.0879612,25.1581359 C96.3342718,24.4486214 95.957767,23.5834757 95.957767,22.5633786 L110.137184,22.5633786 L110.137184,19.3297864 C110.137184,17.2039612 109.720583,15.2928932 108.889417,13.5986214 C108.056893,11.9029903 106.834951,10.5593981 105.220194,9.56920388 L105.220194,9.56920388 Z" id="Fill-9" fill="#FEFEFE"></path>
                    <path d="M17.8813981,10.1043301 C16.5330485,8.75598058 14.7606214,8.0804466 12.5661553,8.0804466 C11.6058641,8.0804466 10.6183883,8.27549515 9.60780583,8.66219417 C8.59654369,9.05025243 7.7456699,9.58714563 7.05790291,10.2769515 L7.05790291,8.33937864 L0.00013592233,8.33937864 L0.00013592233,17.9558835 L7.23052427,24.4414175 L7.23052427,17.870932 C7.23052427,16.6666602 7.54246602,15.8212233 8.1656699,15.3332621 C8.79023301,14.8459806 9.44673786,14.602 10.1351845,14.602 C10.8236311,14.602 11.4794563,14.8412233 12.1040194,15.3210291 C12.7279029,15.8028738 13.0405243,16.6517087 13.0405243,17.870932 L13.0405243,29.6533592 L15.7147961,32.0517087 L20.2695534,32.0517087 L20.2695534,16.8827767 C20.2695534,15.4474369 20.1044078,14.1853981 19.7754757,13.0939417 C19.4438252,12.0045243 18.8138252,11.0082136 17.8813981,10.1043301" id="Fill-11" fill="#FEFEFE"></path>
                    <g id="Group-15" transform="translate(108.737864, 7.770136)">
                        <mask id="mask-6" fill="white">
                            <use xlink:href="#path-5"></use>
                        </mask>
                        <g id="Clip-14"></g>
                        <polygon id="Fill-13" fill="#FEFEFE" mask="url(#mask-6)" points="24.2331845 12.8768058 21.077068 3.4254466 17.8930874 0.569718447 15.1087184 0.569718447 11.021534 12.8768058 8.05095146 0.569718447 0.434543689 0.569718447 7.57862136 24.2820485 13.3451262 24.2820485 17.6273592 11.2844757 21.887165 24.2820485 27.6760971 24.2820485 31.2107573 12.5145728 25.5387184 7.427"></polygon>
                    </g>
                </g>
            </g>
        </g>
    </g>
</svg>